<svg id="Capa_1" data-name="Capa 1" xmlns="http://www.w3.org/2000/svg" viewBox="0 0 99.06 69.94"><defs><style>.cls-1{fill:#1d1d1b;}.cls-2{fill:#e20613;}</style></defs><title>logo</title><path class="cls-1" d="M117.85,86.73A32.14,32.14,0,0,1,108.37,98a33.69,33.69,0,0,1-13.19,6.39,20.31,20.31,0,0,1-7.46.31,12.82,12.82,0,0,1-3.67-1.19,9.7,9.7,0,0,1-3-2.5,10.71,10.71,0,0,1-2-7.29,19.51,19.51,0,0,1,2.06-7.08,32.07,32.07,0,0,1,4-6,35.34,35.34,0,0,1,5.16-5.07,34.9,34.9,0,0,1,12.82-6.72,20.19,20.19,0,0,1,7.45-.58,12.71,12.71,0,0,1,3.75,1.07,9.73,9.73,0,0,1,3.2,2.48,10.93,10.93,0,0,1,2.34,7.56A20,20,0,0,1,117.85,86.73ZM115,85.36A17.14,17.14,0,0,0,117,79.18a8.27,8.27,0,0,0-1.5-5.75,7.52,7.52,0,0,0-2.28-1.94,10.48,10.48,0,0,0-3-1,17.29,17.29,0,0,0-6.63.27A32.9,32.9,0,0,0,82.49,87.36a17.67,17.67,0,0,0-1.81,6.48,8.54,8.54,0,0,0,1.79,6,7.88,7.88,0,0,0,2.47,1.92,10.84,10.84,0,0,0,3.09.87,17.46,17.46,0,0,0,6.61-.54,31.94,31.94,0,0,0,11.92-6.36A34.12,34.12,0,0,0,115,85.36Z" transform="translate(-20.76 -35)"/><path class="cls-1" d="M59.64,86.73A32.27,32.27,0,0,1,50.15,98,33.65,33.65,0,0,1,37,104.41a20.35,20.35,0,0,1-7.47.31,12.82,12.82,0,0,1-3.67-1.19,9.55,9.55,0,0,1-3-2.5,10.61,10.61,0,0,1-2-7.29,19.31,19.31,0,0,1,2.05-7.08,32.55,32.55,0,0,1,4-6A35.84,35.84,0,0,1,32,75.54a34.86,34.86,0,0,1,12.83-6.72,20.12,20.12,0,0,1,7.44-.58,12.86,12.86,0,0,1,3.76,1.07,9.94,9.94,0,0,1,3.2,2.48,10.93,10.93,0,0,1,2.33,7.56A20.23,20.23,0,0,1,59.64,86.73Zm-2.81-1.37a17.32,17.32,0,0,0,1.91-6.18,8.27,8.27,0,0,0-1.5-5.75A7.52,7.52,0,0,0,55,71.49a10.48,10.48,0,0,0-3-1,17.29,17.29,0,0,0-6.63.27,30.78,30.78,0,0,0-12.28,6,30.92,30.92,0,0,0-8.78,10.55,17.67,17.67,0,0,0-1.81,6.48,8.5,8.5,0,0,0,1.8,6,7.76,7.76,0,0,0,2.47,1.92,10.75,10.75,0,0,0,3.09.87,17.43,17.43,0,0,0,6.6-.54,31.87,31.87,0,0,0,11.92-6.36A34.3,34.3,0,0,0,56.83,85.36Z" transform="translate(-20.76 -35)"/><path class="cls-2" d="M96.18,51.5a.75.75,0,0,1-.07.12l0,.09Z" transform="translate(-20.76 -35)"/><path class="cls-2" d="M94.26,59.42A1.59,1.59,0,0,1,92.83,57c1.11-1.81,2.2-3.62,3.28-5.45a3.89,3.89,0,0,0,.58-2.18,3.88,3.88,0,0,0-5.17-3.49l-2.79,1-5.51,1.9c-3.66,1.27-7.31,2.6-11,3.92l-5.45,2-1.37.51-.68.26-.34.13-.19.07-.36.16a5.91,5.91,0,0,0-3.42,5.09,5.91,5.91,0,0,0,1.61,4.35l.5.53,2,2.11,4,4.21,2,2.08.64.64-.79.25c-3.71,1.13-7.42,2.28-11.12,3.49C54.11,80.28,48.88,82.07,43.7,84a.8.8,0,0,0,.39,1.54c5.48-.82,10.92-1.79,16.33-2.83,3.82-.74,7.63-1.53,11.42-2.34l1.43-.31L74,79.9l.1,0,.2-.06.4-.13a5.68,5.68,0,0,0,.78-.39,5,5,0,0,0,2-6.14,5.18,5.18,0,0,0-.92-1.43L76,71.18l-1-1.09L73.13,67.9l-3.88-4.34-1.13-1.18a.79.79,0,0,1,.27-1.28l.72-.31,5.44-2.08c3.61-1.42,7.22-2.83,10.81-4.31L88,53.3a.79.79,0,0,1,1,1.06c-.58,1.31-1.16,2.62-1.73,3.94l.09-.15a3.39,3.39,0,0,0-.49,1.91,3.33,3.33,0,0,0,.67,1.81A3.18,3.18,0,0,0,89.13,63,3.12,3.12,0,0,0,91,63l-.15,0c2.51-.58,5-1.22,7.51-1.84s5-1.33,7.46-2.1c-2.59,0-5.17,0-7.75.11Z" transform="translate(-20.76 -35)"/><path class="cls-2" d="M109.37,37.93a5.13,5.13,0,0,0-1.79-2.13A5,5,0,0,0,105,35a6.42,6.42,0,0,0-2.46.47A8.49,8.49,0,0,0,99,38.36a8.88,8.88,0,0,0-1.67,4.29,5.75,5.75,0,0,0,.28,2.51,5,5,0,0,0,1.59,2.25,5.78,5.78,0,0,0,5.28.8,7.75,7.75,0,0,0,4-3,8.26,8.26,0,0,0,1.52-4.71A6.28,6.28,0,0,0,109.37,37.93Zm-3.93,5.14a6.4,6.4,0,0,1-2.21,1.83,2.49,2.49,0,0,1-2.32.08,2.73,2.73,0,0,1-1.17-2.25,4.92,4.92,0,0,1,1-3.09,5.22,5.22,0,0,1,2.62-1.91,2.64,2.64,0,0,1,2.55.39C107.06,39.15,106.67,41.53,105.44,43.07Z" transform="translate(-20.76 -35)"/></svg>