<?xml version="1.0" encoding="utf-8"?>
<!-- Generator: Adobe Illustrator 22.0.0, SVG Export Plug-In . SVG Version: 6.00 Build 0)  -->
<svg version="1.1" xmlns="http://www.w3.org/2000/svg" xmlns:xlink="http://www.w3.org/1999/xlink" x="0px" y="0px"
	 viewBox="0 0 1200 300" style="enable-background:new 0 0 1200 300;" xml:space="preserve">
<style type="text/css">
	.st0{enable-background:new    ;}
	.st1{fill-rule:evenodd;clip-rule:evenodd;}
</style>
<g id="Artboard_1_1_" class="st0">
	<g id="Letras">
		<g>
			<path class="st1" d="M533.4,149.4c7.1-3.8,11.6-10.5,11.6-19.2c0-13.6-11.2-22.8-33.1-22.8h-42.8v87.5h45.3c23,0,35-8.8,35-23.9
				C549.4,160,543.2,152.5,533.4,149.4z M489.3,122.7h20.1c9.9,0,15.2,3.4,15.2,10.2s-5.4,10.4-15.2,10.4h-20.1V122.7z M512.9,179.7
				h-23.6V158h23.6c10.5,0,16.1,3.5,16.1,10.9C529,176.4,523.4,179.7,512.9,179.7z M573.2,96.5c-7.2,0-12.1,4.8-12.1,10.9
				s4.9,10.9,12.1,10.9c7.2,0,12.1-4.8,12.1-11.2C585.3,101,580.4,96.5,573.2,96.5z M563.4,194.9h19.5v-67.2h-19.5V194.9z
				 M672.3,127.7H649l-28.5,27v-52.5H601v92.8h19.5v-17.1l9.4-9.2l21.2,26.4h23.6l-30.5-38.8L672.3,127.7z M711.5,126.7
				c-20.5,0-35.9,14.5-35.9,34.6c0,20,15.1,34.6,38.4,34.6c12.1,0,21.5-3.8,27.8-10.9l-10.4-11.2c-4.6,4.4-9.8,6.5-16.9,6.5
				c-10.2,0-17.4-5.1-19.2-13.5h50.9c0.1-1.6,0.4-3.8,0.4-5.2C746.5,139.9,731.3,126.7,711.5,126.7z M695,155.4
				c1.4-8.6,7.7-14,16.6-14c8.8,0,15.1,5.5,16.5,14H695z M871.3,107.4l-20.4,62l-20-62h-18.8l-20.6,61.5l-19.8-61.5h-21l28.8,87.5
				h21.6l19.9-59.2l19.2,59.2H862l28.6-87.5H871.3z M927.5,126.7c-21.4,0-37,14.4-37,34.6s15.6,34.6,37,34.6s36.9-14.4,36.9-34.6
				S948.9,126.7,927.5,126.7z M927.5,179.9c-9.8,0-17.2-7-17.2-18.6s7.5-18.6,17.2-18.6c9.7,0,17.1,7,17.1,18.6
				S937.3,179.9,927.5,179.9z M996,136.5v-8.9h-18.6v67.2h19.5v-31.8c0-12.9,7.1-18.8,17.9-18.8c1.5,0,2.8,0.1,4.4,0.2v-18
				C1008.8,126.7,1000.8,130,996,136.5z M1030.8,194.9h19.5v-92.8h-19.5V194.9z M1117.4,102.2v32.6c-4.9-5.5-11.9-8.1-20.1-8.1
				c-19,0-33.6,13.5-33.6,34.6s14.6,34.6,33.6,34.6c9,0,16.1-2.9,21-8.8v7.8h18.6v-92.8H1117.4z M1100.7,179.9
				c-9.8,0-17.2-7-17.2-18.6s7.5-18.6,17.2-18.6c9.6,0,17.1,7,17.1,18.6S1110.3,179.9,1100.7,179.9z"/>
		</g>
	</g>
	<g id="Bici">
		<g>
			<path class="st1" d="M288.1,74.6c5.3,1.3,9.4,4.8,15.3,4.9c1.8-1.8,6.5-5,5.5-9.2c-0.7-3-5.6-6.2-8-8
				c-8.7-6.5-16.9-12.3-29.4-15.3h-11.6c-1,0.8-2.7,1.1-3.7,1.8c-2.3,0.8-4.2,2.6-4.9,4.9c-2,2.7-1,7.1,0,9.8
				C257.3,80.8,270.9,70.2,288.1,74.6z M397.7,103.5c6.3-19,12.7-38,19-57c0.2-0.2,0.4-0.4,0.6-0.6c4.1-0.1,16.6-0.3,19,1.2
				c2,0,3.6,0.2,4.9,0.6c0.5,2,1.5,4,0.6,5.5c-0.2,2.3-0.5,2.3-1.2,3.7c-2.5-0.1-6.4-0.4-8,0.6c-13.4-0.5-8.4,4.2-13.5,11v1.8
				c7.5-2.7,21.4-2.2,27.6-6.1c3.4-1.1,11.6-13.7,8.6-18.4c-0.3-2.8-0.8-2.6-1.8-4.3c-19.6-1.8-39.2-3.7-58.8-5.5
				c-3,0.9-4.6,3.8-6.7,5.5c-0.2,0.6-0.4,1.2-0.6,1.8c1.3,0.4,5,0.5,6.1,1.2h8.6c-1.6,5.7-3.3,11.4-4.9,17.2
				c-9.3,3.4-19.5,3.3-29.4,6.1c-20.1,5.6-42.4,8.4-62.5,14.1c-7.9,2.2-15.6,1.5-23.3,4.3c-6.4,2.3-13.3,7.5-19,11
				c-3.6,2.2-8.4,3-11,6.1c-4.6-1.3-6.7-8.9-10.4-11.7c-7.4-5.5-16.2-8-27-10.4c-9.4-2.1-21.5,0.7-28.2,2.5
				c-18.6,4.9-33.5,10-47.8,19c-4.2,2.6-8.2,6.6-12.3,9.2c-5.9,3.8-16,3-23.3,4.9c-10.4,2.8-21.5,3.8-32.5,6.7
				c-4.5,1.2-9.5,2.9-14.7,3.1c6.3,3.9,26.1-2.7,32.5,1.2h18.4v0.6c-7.6,5-15.6,15.4-20.2,23.3c-12.6,0.7-26.4,3.8-38,6.7
				c-15.3,3.9-30.7,3.4-46,7.4c-0.8,0.2-1.7,0.4-2.5,0.6v2.8c15.2-2.1,32.5,0.3,47.2-2.9c5.7-1.2,16.8,1.3,20.8-1.2h9.8
				c-2.1,7.4-7.1,13.4-8,22.1c-13.7,2.7-27.4,5.3-41.1,8c-4.6,1.2-9.8,2.9-15.3,3.1c2.2,1.3,7.6-0.1,9.8,1.2h31.9
				c3.5,0,9.9-0.9,12.3,0.6c2,3.4,0.8,13.8,2.5,17.8c5.5,13.8,14.9,19.6,28.8,25.1c-5.2,3.4-20.3,1.4-27.6,3.1
				c-23.7,2.9-47.4,5.7-71.1,8.6c2.5,1.5,21.1-0.5,25.7-1.2c14.2-2.2,31.1-0.6,45.3-3.7c8.6-0.2,17.2-0.4,25.7-0.6
				c5.2-1.1,13.1,0.7,19-0.6c6-1.3,15-0.6,22.1-0.6c14.8,0,27.7,0,42.3,0c8.4,0,19-1,26.3,0.6c5.7,1.2,13.4-0.5,18.4,0.6
				c9,1.9,18.8-0.5,27,1.2h10.4c5.6,1.2,13.5,0.6,19,1.8c5.7,0.2,11.4,0.4,17.2,0.6c13.3,2.9,29.1,1.4,42.3,4.3
				c8.2,0.6,16.3,1.2,24.5,1.8c15.6,3.5,46.7,7,58.8-1.2c2.1-1.4,3.2-4.3,4.9-6.1c-0.1-2.1-0.3-3.1-1.2-4.3
				c-5.7-8.6-22.6-6-34.3-8.6c-5.4-1.2-12.9,1.3-17.2-1.2h-6.1v-1.2c9.9-2.5,18.2-9.1,25.7-14.1c21.2-14.1,40.2-32.6,50.9-57
				c1.6-5.3,3.3-10.6,4.9-15.9c1.4-5.6,0.7-14.3-0.6-19C444.2,106.4,428,101.7,397.7,103.5z M243.9,162.9c4.6-7.6,6.5-16.2,9.2-25.8
				c1-3.5,3.9-14.3,1.2-18.4v-4.9c0.7-1.3,19.7-10.1,22.7-11.7c8.5-4.4,19.4-5,30-8c16.5-4.6,35-7.6,51.5-12.3
				c8-2.3,21.2-2.2,27.6-6.1c1.1,0.4,0.6,0.1,1.2,0.6c-8.5,5.1-15.9,12.2-23.9,17.8c-23.4,16.5-46,33.9-69.2,50.3
				c-12.1,8.5-23.7,17.4-35.5,25.8c-5,3.5-11.6,6.3-15.3,11c-4.3-0.2-6.1-1.4-9.8-1.8C235.4,173.5,240.8,168.1,243.9,162.9z
				 M239.7,122.5c2.7,4.4,0.6,14-0.6,18.4c-2.3,8.6-3.9,15.9-8,22.7c-2.4,3.9-6.5,7.8-8,12.3c-10-0.6-20-5.1-28.8-8
				c-4.9-1.6-11.5-1.5-15.3-4.3h-1.2c1-3.6,2.1-6.5,1.8-10.4c12.5-6.1,24.6-13.3,36.8-19.6c7-3.6,16.6-6.3,22.1-11.7
				C239.5,122.2,239,122,239.7,122.5z M141,231c-26.6,7.4-51.3-3.5-57.6-22.7c-4.8-14.6,1.9-31.7,6.7-41.1
				c14.7-28.5,39.2-51.3,69.2-64.4c7.1-3.1,15-5.3,22.7-7.4c3.9-1,10.2,0.1,13.5-1.8c16.9-0.1,35.7,5.2,39.8,17.2h0.6
				c-2.1,4.3-11,6.9-15.3,9.2c-10.7,5.7-21.9,11.4-32.5,17.8c-4.1,2.5-11.2,8.7-15.9,8c-11.3-1.6-29.1,13.7-22.7,23.3
				c0.6,2.8,1.8,3,3.1,4.9c2.4,0.6,6.1,2.2,9.8,1.2c1.2-0.3,3.2-2.1,4.9-1.8c2.7,0.4,7.1,2.8,9.8,3.7c6.6,2.2,12.4,2.7,19,4.9
				c4.8,1.6,10.3,4.3,15.9,4.9c0.2,0.2,0.4,0.4,0.6,0.6c-3.2,4.8-8.3,8.8-12.9,12.3c-4.1,3.1-8,7.4-12.3,10.4
				C174.3,219.5,158.6,226.1,141,231z M299.7,234.7c-14.7,0-35.2-2.2-48.4,0.6c-8.3,1.8-18.8-1-26.3,0.6
				c-10.2,2.2-21.3-0.8-30.6,1.2h-11.6c-6.2,1.3-14.7,0.5-20.8,1.8c-2.9,0.6-6.6-0.6-8.6,0.6h-0.6v-1.2
				c21.5-5.2,37.8-19.7,53.3-31.3c4.7-3.5,15.2-11.1,17.2-16.6c5.2,1.2,13.8,2.5,17.8,5.5c6.2-0.5,9-5.2,12.9-8
				c8.7-6.3,17.1-13,25.7-19c25.2-17.7,49.2-37,74.1-54.6c7.1-5,13.9-10.4,20.8-15.3c4.2-3,9.7-5.2,12.9-9.2
				c1.8,3.7-3.7,12.4-4.3,17.2c-36.6,8.5-71.7,43.1-87,73.6c-7.3,14.5-10.5,43.9,3.7,53.3V234.7z M434.5,168.5
				c-12.2,28.2-40.7,49.7-70.5,60.7c-12.3,4.6-31.8,7.9-45.3,1.8c-17.8-8-20.2-31.1-11.6-50.9c8.2-19,27.4-38.4,44.1-49.1
				c6-3.8,13.1-7.6,19.6-10.4c2.4-1.1,4.8-1,6.7-2.5h1.8c-4.3,14.1-8.6,28.2-12.9,42.3c-1.6,1.7-4.7,1.9-6.1,3.7
				c-1.8,2.4-2.4,5.6-4.3,8c0,4.5,1.1,5.8,2.5,8.6c8.6,2.3,16.5,0.1,20.8-6.7c1.2-1.9,1.2-4.3,2.5-6.1c-0.1-4.1-1.2-6.4-3.7-8
				c5.1-15.1,10.2-30.3,15.3-45.4c1.6-0.3,6-0.4,7.4-1.2C436.2,113.1,447.8,137.8,434.5,168.5z M0,256.1C0,256.1,0,256.1,0,256.1
				C0,256.1,0,256.1,0,256.1L0,256.1z"/>
		</g>
	</g>
</g>
<g id="_x3C_Type_x3E_">
</g>
</svg>
