<svg xmlns="http://www.w3.org/2000/svg" xmlns:xlink="http://www.w3.org/1999/xlink" viewBox="0 0 420.99 70.94"><defs><style>.cls-1{fill:#1d1d1b;}.cls-2{fill:#e20613;}.cls-3{mask:url(#mask);}.cls-4{fill:#fff;stroke:#000;stroke-miterlimit:10;}.cls-5{opacity:0.76;font-size:65.67px;font-family:ErasITC-Bold, Eras Bold ITC;font-weight:700;}</style><mask id="mask" x="1.19" y="-8227.5" width="364.28" height="32766" maskUnits="userSpaceOnUse"/></defs><g id="Capa_2" data-name="Capa 2"><g id="Capa_1-2" data-name="Capa 1"><path class="cls-1" d="M98.67,52.23A32.4,32.4,0,0,1,89,63.5a34.6,34.6,0,0,1-13.41,6.39A21.06,21.06,0,0,1,68,70.2,13.21,13.21,0,0,1,64.3,69a9.72,9.72,0,0,1-3-2.5,10.55,10.55,0,0,1-2-7.29,19.18,19.18,0,0,1,2.09-7.08,32,32,0,0,1,4.07-6A37.65,37.65,0,0,1,83.66,34.35a20.76,20.76,0,0,1,7.57-.58,13,13,0,0,1,3.82,1.07,9.88,9.88,0,0,1,3.25,2.48,10.82,10.82,0,0,1,2.38,7.56A19.89,19.89,0,0,1,98.67,52.23Zm-2.9-1.37a16.93,16.93,0,0,0,2-6.18,8.15,8.15,0,0,0-1.52-5.75A7.76,7.76,0,0,0,94,37a10.92,10.92,0,0,0-3-1,17.78,17.78,0,0,0-6.74.27,33.38,33.38,0,0,0-21.46,16.6,17.48,17.48,0,0,0-1.84,6.48,8.52,8.52,0,0,0,1.82,6,8.12,8.12,0,0,0,2.51,1.92,11.09,11.09,0,0,0,3.15.87,18.15,18.15,0,0,0,6.72-.54,32.75,32.75,0,0,0,12.12-6.36A34.43,34.43,0,0,0,95.77,50.86Z"/><path class="cls-1" d="M39.48,52.23A32.33,32.33,0,0,1,29.83,63.5a34.4,34.4,0,0,1-13.37,6.41,21.06,21.06,0,0,1-7.59.31A13.27,13.27,0,0,1,5.13,69a9.72,9.72,0,0,1-3-2.5,10.53,10.53,0,0,1-2-7.29,19.17,19.17,0,0,1,2.08-7.08,32.84,32.84,0,0,1,4.07-6A36.34,36.34,0,0,1,11.38,41a35.7,35.7,0,0,1,13-6.72A20.76,20.76,0,0,1,32,33.74a13,13,0,0,1,3.82,1.07,10,10,0,0,1,3.25,2.48,10.76,10.76,0,0,1,2.37,7.56A20,20,0,0,1,39.48,52.23Zm-2.86-1.37a17.11,17.11,0,0,0,2-6.18A8.15,8.15,0,0,0,37,38.93,7.6,7.6,0,0,0,34.76,37a10.92,10.92,0,0,0-3-1,17.79,17.79,0,0,0-6.74.27,31.46,31.46,0,0,0-12.48,6A30.87,30.87,0,0,0,3.56,52.81a17.29,17.29,0,0,0-1.84,6.48,8.37,8.37,0,0,0,1.83,6,7.89,7.89,0,0,0,2.51,1.92,11.12,11.12,0,0,0,3.14.87,18.08,18.08,0,0,0,6.71-.54A32.45,32.45,0,0,0,28,61.18,34.42,34.42,0,0,0,36.62,50.86Z"/><path class="cls-2" d="M76.63,17a.75.75,0,0,1-.07.12v.09Z"/><path class="cls-2" d="M74.68,24.92A1.61,1.61,0,0,1,73,23.41a1.54,1.54,0,0,1,.24-.91c1.13-1.81,2.23-3.62,3.33-5.45a3.81,3.81,0,0,0,.59-2.18A3.92,3.92,0,0,0,73,11.16a4.11,4.11,0,0,0-1.15.22l-2.83,1-5.6,1.9c-3.73,1.27-7.44,2.6-11.19,3.92l-5.54,2-1.39.51-.69.26-.35.13-.19.07-.37.16a5.94,5.94,0,0,0-3.48,5.09,5.84,5.84,0,0,0,1.64,4.35l.51.53,2,2.11,4.07,4.21,2,2.08.65.64-.8.25c-3.77,1.13-7.54,2.28-11.31,3.49-5.22,1.7-10.54,3.49-15.81,5.42a.78.78,0,0,0-.46,1,.8.8,0,0,0,.86.51c5.57-.82,11.1-1.79,16.6-2.83,3.89-.74,7.76-1.53,11.61-2.34l1.46-.31.74-.16h.1l.21-.06.4-.13a5.91,5.91,0,0,0,.8-.39,5,5,0,0,0,2-6.14,5.21,5.21,0,0,0-.94-1.43l-.57-.57-1-1.09L53.2,33.4l-4-4.34L48.1,27.88a.78.78,0,0,1,0-1.12.87.87,0,0,1,.26-.16l.73-.31,5.53-2.08c3.67-1.42,7.34-2.83,11-4.31l2.69-1.1a.81.81,0,0,1,1,.46.78.78,0,0,1,0,.6c-.59,1.31-1.18,2.62-1.76,3.94l.09-.15a3.37,3.37,0,0,0-.49,1.91,3.3,3.3,0,0,0,2.29,2.94,3.27,3.27,0,0,0,1.91,0h-.16c2.56-.58,5.09-1.22,7.64-1.84s5.08-1.33,7.58-2.1c-2.63,0-5.25,0-7.88.11Z"/><path class="cls-2" d="M90,3.43A5.07,5.07,0,0,0,88.22,1.3,5.16,5.16,0,0,0,85.6.5,6.46,6.46,0,0,0,83.1,1a8.57,8.57,0,0,0-3.6,2.89,8.78,8.78,0,0,0-1.7,4.29,5.64,5.64,0,0,0,.29,2.51,5,5,0,0,0,1.61,2.25,6,6,0,0,0,5.37.8,7.87,7.87,0,0,0,4.07-3A8.16,8.16,0,0,0,90.68,6,6.06,6.06,0,0,0,90,3.43Zm-4,5.14A6.45,6.45,0,0,1,83.8,10.4a2.56,2.56,0,0,1-2.36.08,2.71,2.71,0,0,1-1.19-2.25,4.89,4.89,0,0,1,1-3.09,5.28,5.28,0,0,1,2.66-1.91,2.75,2.75,0,0,1,2.6.39C87.7,4.65,87.3,7,86.05,8.57Z"/><g class="cls-3"><rect class="cls-4" x="1.69" y="0.5" width="363.28" height="69.94"/></g><text class="cls-5" transform="matrix(0.71, 0, -0.37, 0.93, 99.42, 55.17)">BIKEWORLD</text></g></g></svg>